# xmcd
#
# Track frame offsets:
#	150
#	20047
#	34637
#	53197
#	77732
#	99630
#	116512
#	135487
#	155015
#	174602
#	189202
#	207797
#	232230
#	254127
#	270990
#	289977
#
# Disc length: 4127
#
# Revision: 2
# Processed by: cddbd v1.5.1PL0 Copyright (c) Steve Scherf et al.
# Submitted via: EasyCDDAExtractor 5.0.6
# Normalized: r1:DSETVAR1
#
DISCID=e5101d10
DTITLE=Various Artist - Jam with Blues Masters
DYEAR=1995
DGENRE=Blues
TTITLE0=Gary Moore - Oh pretty woman - back
TTITLE1=Eric Clapton - Hideaway -back
TTITLE2=Fleetwood Mac - Need your love so bad - back
TTITLE3=John Lee Hooker - The Healer - back
TTITLE4=George Thorogood - Bad to the bone - back
TTITLE5=Jimi Hendrix - Hey Joe - back
TTITLE6=Stevie Ray Vaughan - Crossfire - back
TTITLE7=Free - The hunter -back
TTITLE8=Gary Moore - Oh pretty woman
TTITLE9=Eric Clapton - Hideaway
TTITLE10=Fleetwood Mac - Need your love so bad
TTITLE11=John Lee Hooker - The Healer
TTITLE12=George Thorogood - Bad to the bone
TTITLE13=Jimi Hendrix - Hey Joe
TTITLE14=Stevie Ray Vaughan - Crossfire
TTITLE15=Free - The Hunter
EXTD=
EXTT0=
EXTT1=
EXTT2=
EXTT3=
EXTT4=
EXTT5=
EXTT6=
EXTT7=
EXTT8=
EXTT9=
EXTT10=
EXTT11=
EXTT12=
EXTT13=
EXTT14=
EXTT15=
PLAYORDER=
